<svg xmlns="http://www.w3.org/2000/svg" viewBox="0 0 64.81 59.28"><g id="Layer_2" data-name="Layer 2"><g id="Layer_1-2" data-name="Layer 1"><path d="M29.8,0a1.31,1.31,0,0,0-1.33,1.17l-.29,3a15.2,15.2,0,0,0-3.43,1.44L22.42,3.69a1.33,1.33,0,0,0-1.78.08L16.92,7.49c-.18.18-.09.44-.15.68H9.45a6.69,6.69,0,0,0-6.68,6.66V47.29H1.3A1.24,1.24,0,0,0,0,48.47v4.2a6.6,6.6,0,0,0,6.57,6.61H58.19a6.6,6.6,0,0,0,6.62-6.56V48.58a1.26,1.26,0,0,0-1.2-1.3H62.05V14.83a6.7,6.7,0,0,0-6.69-6.66H48.05c-.06-.24,0-.5-.15-.67L44.22,3.77a1.33,1.33,0,0,0-1.78-.09L40.1,5.62a15.8,15.8,0,0,0-3.42-1.44l-.29-3A1.32,1.32,0,0,0,35.06,0ZM31,2.64h2.88l.26,2.7a1.32,1.32,0,0,0,1,1.15,13.1,13.1,0,0,1,4.36,1.83h0a1.34,1.34,0,0,0,1.55-.1L43.19,6.5l2,2-1.74,2.1a1.32,1.32,0,0,0-.08,1.57h0a12.83,12.83,0,0,1,1.84,4.36h0a1.34,1.34,0,0,0,1.19,1l2.74.27V20.7L46.42,21a1.37,1.37,0,0,0-1.17,1h0a13.1,13.1,0,0,1-1.85,4.37h0a1.35,1.35,0,0,0,.08,1.57h0L45.22,30l-2,2L41.1,30.3a1.32,1.32,0,0,0-1.57-.08,12.69,12.69,0,0,1-4.36,1.83h0a1.34,1.34,0,0,0-1,1.18L33.87,36H31l-.27-2.73h0a1.32,1.32,0,0,0-1-1.17,13.28,13.28,0,0,1-4.37-1.85h0a1.34,1.34,0,0,0-1.56.09L21.66,32l-2-2,1.73-2.09h0a1.34,1.34,0,0,0,.08-1.58A12.78,12.78,0,0,1,19.61,22h0a1.37,1.37,0,0,0-1.19-1l-2.74-.26V17.82l2.75-.26a1.33,1.33,0,0,0,1.17-1h0a13.31,13.31,0,0,1,1.85-4.37,1.31,1.31,0,0,0-.08-1.56h0L19.63,8.51l2-2,2.09,1.73a1.31,1.31,0,0,0,1.57.08,12.82,12.82,0,0,1,4.35-1.82,1.31,1.31,0,0,0,1-1.14h0ZM9.45,10.81h8.66l.65.78a13.81,13.81,0,0,0-1.05,2.24H9.38A1.35,1.35,0,0,0,8,15.13V43.65a1.31,1.31,0,0,0,1.35,1.27h46a1.3,1.3,0,0,0,1.36-1.25V15.13a1.33,1.33,0,0,0-1.35-1.3H47.11a14.32,14.32,0,0,0-1.06-2.24l.65-.78h8.66a4,4,0,0,1,4,4V47.29h-54V14.84h0a4,4,0,0,1,4-4Zm23.69,1.86a1.32,1.32,0,0,0-1.24,1.12h0L30.3,24.34a1.33,1.33,0,0,0,1.11,1.5h0a1.33,1.33,0,0,0,1.5-1.1h0l1.6-10.54a1.33,1.33,0,0,0-1.11-1.51Zm-5.47,1.72a1.34,1.34,0,0,0-1,.25h0L22,18.18A1.32,1.32,0,0,0,21.76,20a1.24,1.24,0,0,0,.25.26h0l4.67,3.53h0a1.32,1.32,0,0,0,1.62-2.09s-.07-.05,0,0h0L25,19.23l3.29-2.48a1.32,1.32,0,0,0,.24-1.85,1.33,1.33,0,0,0-.86-.51Zm9.48,0a1.35,1.35,0,0,0-.88.52,1.33,1.33,0,0,0,.26,1.84l3.28,2.48-3.28,2.49a1.33,1.33,0,0,0-.25,1.85h0a1.33,1.33,0,0,0,1.85.25l4.67-3.53a1.33,1.33,0,0,0,.26-1.85h0a1.28,1.28,0,0,0-.26-.26h0l-4.68-3.54a1.32,1.32,0,0,0-1-.24ZM10.68,16.48h2.44c0,.05-.08.06-.08.12v5.31a1.36,1.36,0,0,0,1.22,1.31l3,.29a15.63,15.63,0,0,0,1.45,3.42l-1.93,2.33A1.32,1.32,0,0,0,16.91,31l3.73,3.73a1.34,1.34,0,0,0,1.78.08l2.34-1.94a15.72,15.72,0,0,0,3.41,1.44l.3,3a1.33,1.33,0,0,0,1.31,1.21h5.29a1.34,1.34,0,0,0,1.31-1.21l.3-3a15.32,15.32,0,0,0,3.42-1.44l2.33,1.93a1.34,1.34,0,0,0,1.78-.08L47.93,31A1.33,1.33,0,0,0,48,29.26h0l-1.94-2.33a15.83,15.83,0,0,0,1.45-3.42l3-.29a1.36,1.36,0,0,0,1.22-1.3V16.6c0-.06-.07-.07-.08-.12h2.44v25.8H10.67Zm-8,33.45H62.17v2.74a3.94,3.94,0,0,1-3.93,4H6.62a4,4,0,0,1-4-3.92V49.93Z"/></g></g></svg>