<svg xmlns="http://www.w3.org/2000/svg" viewBox="0 0 128 128"><g id="Layer_2" data-name="Layer 2"><g id="Layer_1-2" data-name="Layer 1"><path d="M121.55,10.8l-5.63-2.14A10.05,10.05,0,0,0,112.33,8h0A10,10,0,0,0,103,14.35L95.32,33.87A4,4,0,0,0,97.54,39c.1,0,.15.12.12.19a.22.22,0,0,1-.23.13h-.1a4,4,0,0,0-5.07,2.31l-1.78,4.56a6.94,6.94,0,0,0,3.58,8.85L90.69,64H95l2.82-7.49,5.41,2.05-2,5.44h4.27L107,59.88a7,7,0,0,0,7.84-4.32L116.61,51a4,4,0,0,0-2.26-5.18l0,0-.13,0a.22.22,0,0,1-.09-.1.14.14,0,0,1,0-.09.27.27,0,0,1,.24-.14h.07l.12,0a4,4,0,0,0,5.14-2.28l7.65-19.52a9.89,9.89,0,0,0-5.76-12.88Zm2,11.42-7.65,19.52-.09,0a4.15,4.15,0,0,0-1.52-.29,4.25,4.25,0,0,0-4,2.68,4.16,4.16,0,0,0,2.37,5.38l.06,0,.09,0L111.1,54.1a3,3,0,0,1-3.9,1.7L95.93,51.52a3,3,0,0,1-1.75-3.8l0,0L96,43.12a4.4,4.4,0,0,0,1.44.24,4.25,4.25,0,0,0,4-2.67A4.16,4.16,0,0,0,99,35.33l7.65-19.52A6,6,0,0,1,112.33,12a6.22,6.22,0,0,1,2.17.4l5.63,2.14a5.91,5.91,0,0,1,3.49,7.6l0,.08Z"/><path d="M108,68H20a8,8,0,0,0-8,8v44a8,8,0,0,0,8,8h88a8,8,0,0,0,8-8V76A8,8,0,0,0,108,68Zm4,52a4,4,0,0,1-4,4H20a4,4,0,0,1-4-4V76a4,4,0,0,1,4-4h88a4,4,0,0,1,4,4Z"/><path d="M89.09.32a2,2,0,0,0-2.1,0,15.89,15.89,0,0,1-4.23,1.54,14.09,14.09,0,0,0-11.17.92c-2.75,1.09-6.11-1-6.14-1A2,2,0,0,0,62.4,3.23L60,25.75a2,2,0,0,0,.47,1.5L55.91,64h4l4.43-35.61L73.91,30a1.84,1.84,0,0,0,.33,0,2,2,0,0,0,1.21-.41l9.68-7.35.6,2.41-1.94,1.66a2,2,0,0,0-.64,2l.62,2.47-1.94,1.66a2,2,0,0,0-.64,2l.62,2.47-1.94,1.65a2,2,0,0,0-.64,2l.63,2.47-1.94,1.66a2,2,0,0,0-.65,2l.63,2.47L76,50.86a2,2,0,0,0-.64,2l.62,2.47L74,57a2,2,0,0,0-.64,2L74,61.48l-1.94,1.65a1.93,1.93,0,0,0-.59.87h5.73l.34-.29a2,2,0,0,0,.64-2l-.62-2.47,1.93-1.65a2,2,0,0,0,.64-2L79.5,53.1l1.94-1.66a2,2,0,0,0,.64-2L81.46,47,83.4,45.3a2,2,0,0,0,.64-2l-.63-2.47,1.94-1.65a2,2,0,0,0,.64-2l-.62-2.47L87.31,33A2,2,0,0,0,88,31l-.62-2.48,1.94-1.66a2,2,0,0,0,.64-2l-.81-7a2,2,0,0,0-.68-1.39L90,2.22A2,2,0,0,0,89.09.32ZM84.24,17.89l-10.52,8L64.19,24.3l1-9.06L74.55,17a2.06,2.06,0,0,0,1.25-.18l9.06-4.49Zm1,4.23.07,0v0Zm.11-14.55L74.62,12.91l-9.05-1.66.51-4.86a10.15,10.15,0,0,0,7.22,0l.3-.16C73.74,6.11,77,4.05,82,5.77a2,2,0,0,0,1,.08,24.47,24.47,0,0,0,2.65-.67Z"/><path d="M20.19,42.81a3.93,3.93,0,0,0,4.44,1.11l.3-.11L32.36,64h4.23L27.25,38.61,23.2,40.19,18.5,34.7C10.18,34.84,4,44.59,4,44.59,4.28,30.92,13.71,28,13.71,28l17.92-7,3.57,3.92,2.5-1-.47-5.13,4.21-1.65a2.17,2.17,0,0,1,.71-.13A2,2,0,0,1,44,18.33L47.91,28.9a2.08,2.08,0,0,1-1.17,2.65l-3.89,1.52L39.7,29.36l-3,1.15.07,4.55-2.56,1.3L44.43,64h4.23L39.18,38.27a4,4,0,0,0,1.39-1.93,3.93,3.93,0,0,0,3.71.46l3.9-1.52a6.1,6.1,0,0,0,3.44-7.78L47.73,16.93A6,6,0,0,0,42.15,13a5.81,5.81,0,0,0-2.14.41L35.8,15.05a4,4,0,0,0-2.31,2.4,3.91,3.91,0,0,0-3.29-.21l-17.86,7C10.73,24.79.36,29.09,0,44.5a4,4,0,0,0,2.8,3.92,4,4,0,0,0,4.5-1.66c1.26-2,5.19-6.72,9.58-7.83Z"/><path d="M32,81a9,9,0,0,0-9,9v16a9,9,0,0,0,18,0V90A9,9,0,0,0,32,81Zm5,25a5,5,0,0,1-10,0V90a5,5,0,0,1,10,0Z"/><path d="M62,81a9,9,0,0,0-9,9v16a9,9,0,0,0,18,0V90A9,9,0,0,0,62,81Zm5,25a5,5,0,0,1-10,0V90a5,5,0,0,1,10,0Z"/><path d="M92,81a9,9,0,0,0-9,9v16a9,9,0,0,0,18,0V90A9,9,0,0,0,92,81Zm5,25a5,5,0,0,1-10,0V90a5,5,0,0,1,10,0Z"/></g></g></svg>